#!OML:ASF Y:\EmotionMaleHayes\Project 1\Capture day 1\Session 1\Male1.ASF
:FULLY-SPECIFIED
:DEGREES
50
root -28.3944 17.0449 0.451952 24.7182 82.1771 23.3263
lowerback 7.88617 1.10827 -5.11797
upperback 1.50657 1.07343 -0.501528
thorax -2.9427 0.594588 2.24412
lowerneck -24.2082 3.34304 3.39512
upperneck 31.0734 4.58182 -1.71256
head 15.0052 2.25032 -0.344219
rclavicle 1.71989e-014 4.7421e-015
rhumerus -35.5819 2.47172 -88.4046
rradius 31.5478
rwrist 4.54718
rhand -12.227 -27.2432
rfingers 7.12502
rthumb 13.8383 -56.7629
lclavicle 1.71989e-014 4.7421e-015
lhumerus -28.2108 -18.3795 91.6945
lradius 28.0703
lwrist -4.12898
lhand -23.5127 -28.9146
lfingers 7.12502
lthumb 2.94799 1.04477
rfemur 7.66033 -6.9724 12.8626
rtibia 8.28749
rfoot -23.5869 -3.31964
rtoes 11.0658
lfemur 7.56714 3.9656 -16.2828
ltibia 7.64693
lfoot -19.9031 9.07519
ltoes -16.5224
51
root -28.3653 17.0407 0.460579 24.1907 82.2309 22.656
lowerback 7.90531 1.1005 -5.12365
upperback 1.48866 1.06262 -0.408818
thorax -2.97301 0.590077 2.3442
lowerneck -24.5413 3.37181 3.3703
upperneck 31.2498 4.64748 -1.76284
head 15.1627 2.26264 -0.341383
rclavicle -2.49568e-015 5.479e-015
rhumerus -35.9848 2.64789 -88.3488
rradius 31.8303
rwrist 4.3108
rhand -11.9872 -27.2521
rfingers 7.12502
rthumb 14.0693 -56.7559
lclavicle -2.49568e-015 5.479e-015
lhumerus -27.9551 -18.4614 91.6119
lradius 28.2908
lwrist -3.69373
lhand -23.4714 -28.4412
lfingers 7.12502
lthumb 2.98784 1.51763
rfemur 7.61406 -7.09563 13.0602
rtibia 8.36038
rfoot -23.672 -3.60961
rtoes 8.24739
lfemur 7.56435 3.86097 -16.1854
ltibia 7.5899
lfoot -20.0301 9.12263
ltoes -16.4531
52
root -28.3337 17.0376 0.467431 24.7707 82.2886 23.0194
lowerback 7.84784 1.09188 -5.09747
upperback 1.45962 1.05367 -0.472998
thorax -2.96882 0.585486 2.26443
lowerneck -24.9317 3.40119 3.49413
upperneck 31.4206 4.63254 -1.7791
head 15.3324 2.2629 -0.365153
rclavicle -8.04721e-015 2.8193e-014
rhumerus -36.3275 2.47723 -88.3813
rradius 31.9958
rwrist 4.21824
rhand -11.8437 -27.1871
rfingers 7.12502
rthumb 14.2076 -56.6812
lclavicle -8.04721e-015 2.8193e-014
lhumerus -27.7085 -18.5608 91.3222
lradius 28.6243
lwrist -3.65557
lhand -22.7258 -28.3526
lfingers 7.12502
lthumb 3.70786 1.59486
rfemur 7.50848 -6.96683 13.0942
rtibia 8.28724
rfoot -23.881 -3.43928
rtoes 9.37567
lfemur 7.50057 3.60822 -16.2908
ltibia 7.43264
lfoot -20.2208 9.12596
ltoes -15.9866
53
root -28.2959 17.0336 0.473612 25.3375 82.3302 23.4467
lowerback 7.80869 1.0851 -5.03301
upperback 1.46272 1.05041 -0.559914
thorax -2.94082 0.582589 2.13909
lowerneck -25.1254 3.42075 3.56859
upperneck 31.3756 4.60871 -1.77338
head 15.3558 2.25795 -0.378041
rclavicle -2.30932e-014 -4.24902e-015
rhumerus -36.7112 2.46056 -88.4781
rradius 32.1667
rwrist 3.93152
rhand -11.8235 -27.0509
rfingers 7.12502
rthumb 14.2271 -56.5436
lclavicle -2.30932e-014 -4.24902e-015
lhumerus -27.4154 -18.3657 90.915
lradius 29.059
lwrist -3.96277
lhand -22.1916 -27.7021
lfingers 7.12502
lthumb 4.22374 2.23581
rfemur 7.49131 -7.13559 13.0209
rtibia 8.37036
rfoot -24.0954 -3.42366
rtoes 8.28865
lfemur 7.54144 3.59903 -16.3036
ltibia 7.30796
lfoot -20.4587 8.85721
ltoes -15.492
54
root -28.2594 17.0247 0.482496 26.8848 82.3121 24.8228
lowerback 7.70169 1.07109 -5.27187
upperback 1.48105 1.02008 -0.562771
thorax -2.86367 0.567745 2.27498
lowerneck -25.2063 3.43992 3.51349
upperneck 31.2162 4.65744 -1.81858
head 15.3009 2.26061 -0.378166
rclavicle -7.237e-015 1.83627e-014
rhumerus -37.0767 2.88106 -88.5463
rradius 32.4066
rwrist 3.3814
rhand -11.7587 -27.2155
rfingers 7.12502
rthumb 14.2895 -56.7038
lclavicle -7.237e-015 1.83627e-014
lhumerus -27.1063 -18.7899 90.8485
lradius 29.3732
lwrist -3.03168
lhand -21.7234 -26.4823
lfingers 7.12502
lthumb 4.67582 3.44614
rfemur 7.46655 -7.0551 12.8576
rtibia 8.33565
rfoot -24.2897 -3.4593
rtoes 8.5533
lfemur 7.45232 3.53732 -16.4997
ltibia 7.34208
lfoot -20.6623 8.80781
ltoes -15.8654
55
root -28.2253 17.017 0.492512 27.5562 82.3234 25.2776
lowerback 7.65452 1.07255 -5.39602
upperback 1.45671 1.01421 -0.541606
thorax -2.86458 0.56616 2.36759
lowerneck -25.3554 3.43638 3.44464
upperneck 31.1222 4.65947 -1.80861
head 15.2876 2.24994 -0.360825
rclavicle 1.33947e-015 4.44315e-015
rhumerus -37.472 3.21321 -88.583
rradius 32.6463
rwrist 2.9089
rhand -11.6266 -27.3734
rfingers 7.12502
rthumb 14.4168 -56.8527
lclavicle 1.33947e-015 4.44315e-015
lhumerus -26.8658 -19.1066 90.7217
lradius 29.7438
lwrist -2.44455
lhand -20.8103 -26.004
lfingers 7.12502
lthumb 5.55751 3.90312
rfemur 7.39972 -6.90094 12.8956
rtibia 8.25524
rfoot -24.4553 -3.65598
rtoes 8.31507
lfemur 7.32379 3.42576 -16.5731
ltibia 7.40644
lfoot -20.8902 8.8223
ltoes -16.1393
56
root -28.1853 17.0147 0.500985 27.148 82.3063 24.7563
lowerback 7.67924 1.10109 -5.36058
upperback 1.45808 1.0537 -0.527716
thorax -2.87982 0.585789 2.35769
lowerneck -25.4936 3.43653 3.43456
upperneck 31.079 4.66521 -1.84738
head 15.2992 2.24169 -0.372767
rclavicle -7.39735e-015 1.03034e-014
rhumerus -37.8517 3.35241 -88.5995
rradius 32.7771
rwrist 2.53774
rhand -11.555 -27.5021
rfingers 7.12502
rthumb 14.4858 -56.9764
lclavicle -7.39735e-015 1.03034e-014
lhumerus -26.6231 -19.2128 90.4984
lradius 30.0574
lwrist -2.43164
lhand -20.2457 -26.0377
lfingers 7.12502
lthumb 6.1026 3.85441
rfemur 7.48256 -6.86432 12.9823
rtibia 8.15137
rfoot -24.5476 -3.65756
rtoes 7.74628
lfemur 7.37832 3.37596 -16.5274
ltibia 7.42281
lfoot -21.1483 8.75896
ltoes -15.646
57
root -28.1417 17.0109 0.50864 27.2306 82.2347 24.7486
lowerback 7.71611 1.13324 -5.41424
upperback 1.47575 1.09065 -0.535445
thorax -2.88578 0.604671 2.37553
lowerneck -25.7468 3.50098 3.55992
upperneck 31.099 4.73934 -1.98101
head 15.3755 2.26247 -0.431225
rclavicle -8.09057e-015 1.72384e-015
rhumerus -38.1238 3.40666 -88.6122
rradius 32.799
rwrist 2.2051
rhand -11.3754 -27.9717
rfingers 7.12502
rthumb 14.6589 -57.4335
lclavicle -8.09057e-015 1.72384e-015
lhumerus -26.3188 -19.4219 90.2779
lradius 30.4342
lwrist -2.09952
lhand -19.7649 -25.6961
lfingers 7.12502
lthumb 6.56674 4.18207
rfemur 7.5778 -6.95549 12.8989
rtibia 8.10982
rfoot -24.6499 -3.42074
rtoes 8.0667
lfemur 7.45739 3.356 -16.6128
ltibia 7.41153
lfoot -21.326 8.76897
ltoes -15.0271
58
root -28.0993 17.0025 0.516213 26.124 82.2999 23.4902
lowerback 7.73003 1.15296 -5.22625
upperback 1.51488 1.13364 -0.5032
thorax -2.85365 0.623092 2.29928
lowerneck -26.0672 3.54975 3.70188
upperneck 31.0392 4.77122 -2.11885
head 15.4289 2.2643 -0.502955
rclavicle -6.8208e-015 -5.83153e-015
rhumerus -38.3826 3.50568 -88.6249
rradius 32.86
rwrist 1.84605
rhand -11.0519 -28.2935
rfingers 7.12502
rthumb 14.9705 -57.7324
lclavicle -6.8208e-015 -5.83153e-015
lhumerus -25.9574 -19.8575 90.0283
lradius 30.9724
lwrist -1.45922
lhand -19.5498 -25.1381
lfingers 7.12502
lthumb 6.77445 4.73348
rfemur 7.54924 -6.97988 13.1363
rtibia 8.19019
rfoot -24.8467 -3.32975
rtoes 8.44341
lfemur 7.42004 3.6699 -16.2867
ltibia 7.55832
lfoot -21.4117 8.46377
ltoes -13.9325
59
root -28.0553 16.9957 0.525044 25.2995 82.3797 22.4474
lowerback 7.63292 1.15444 -5.01639
upperback 1.5778 1.1611 -0.503426
thorax -2.7325 0.631428 2.18078
lowerneck -26.335 3.57819 3.73853
upperneck 30.8773 4.77769 -2.15991
head 15.4151 2.25704 -0.522895
rclavicle 7.34571e-016 7.40473e-015
rhumerus -38.6747 3.7061 -88.6595
rradius 32.9691
rwrist 1.47558
rhand -10.811 -27.8779
rfingers 7.12502
rthumb 15.2026 -57.2994
lclavicle 7.34571e-016 7.40473e-015
lhumerus -25.5689 -20.3284 89.7205
lradius 31.4792
lwrist -1.06071
lhand -20.2876 -24.5356
lfingers 7.12502
lthumb 6.06218 5.3577
rfemur 7.43283 -6.8139 13.4449
rtibia 8.27915
rfoot -25.0222 -3.60781
rtoes 7.60356
lfemur 7.32771 3.97405 -15.9565
ltibia 7.67073
lfoot -21.4642 8.1742
ltoes -13.389
60
root -28.0094 16.995 0.533747 26.3246 82.2844 23.2476
lowerback 7.49289 1.17737 -5.09284
upperback 1.64013 1.19548 -0.590745
thorax -2.59197 0.645397 2.13273
lowerneck -26.5376 3.58629 3.67072
upperneck 30.7351 4.77006 -2.09888
head 15.3885 2.24847 -0.485829
rclavicle 1.18401e-014 7.06928e-015
rhumerus -39.0072 3.96163 -88.7428
rradius 33.1042
rwrist 0.88919
rhand -10.9943 -26.9582
rfingers 7.12502
rthumb 15.026 -56.393
lclavicle 1.18401e-014 7.06928e-015
lhumerus -25.1926 -20.8045 89.3822
lradius 32.0197
lwrist -0.689274
lhand -20.5086 -23.5497
lfingers 7.12502
lthumb 5.8488 6.34954
rfemur 7.32952 -6.65653 13.3618
rtibia 8.29861
rfoot -25.1788 -3.85435
rtoes 6.60631
lfemur 7.39872 3.70308 -16.2334
ltibia 7.36639
lfoot -21.6298 8.46205
ltoes -14.2343
61
root -27.9961 16.9815 0.555183 30.2909 82.7383 26.8083
lowerback 7.65228 1.0124 -5.38548
upperback 1.54182 0.938015 -0.651484
thorax -2.76664 0.525263 2.25637
lowerneck -26.7792 3.57136 3.57708
upperneck 30.6817 4.72224 -1.9737
head 15.4072 2.23021 -0.424674
rclavicle 1.2424e-017 -3.42904e-015
rhumerus -39.3865 4.2101 -88.8971
rradius 33.2515
rwrist 0.155028
rhand -11.447 -26.524
rfingers 7.12502
rthumb 14.5899 -55.9908
lclavicle 1.2424e-017 -3.42904e-015
lhumerus -24.8285 -21.149 89.0227
lradius 32.662
lwrist -0.117001
lhand -19.5784 -22.565
lfingers 7.12502
lthumb 6.74685 7.3075
rfemur 7.10965 -6.78871 13.32
rtibia 8.19986
rfoot -25.4346 -4.33564
rtoes 6.45279
lfemur 6.78409 3.42034 -16.4379
ltibia 7.58736
lfoot -21.6761 8.22176
ltoes -15.9247
62
root -27.9519 16.9721 0.565319 31.1354 82.7988 27.4188
lowerback 7.69959 0.98258 -5.40353
upperback 1.52825 0.892593 -0.688997
thorax -2.80314 0.504025 2.2315
lowerneck -27.1813 3.60832 3.64577
upperneck 30.7381 4.7306 -1.99643
head 15.5246 2.23045 -0.43844
rclavicle -1.92821e-014 9.64106e-015
rhumerus -39.8386 4.28822 -89.0079
rradius 33.3979
rwrist -0.193306
rhand -11.6229 -26.6892
rfingers 7.12502
rthumb 14.4204 -56.1682
lclavicle -1.92821e-014 9.64106e-015
lhumerus -24.4917 -21.3877 88.6673
lradius 33.3134
lwrist 0.529249
lhand -18.3832 -22.1582
lfingers 7.12502
lthumb 7.90054 7.67421
rfemur 7.08612 -7.05123 13.2314
rtibia 8.13806
rfoot -25.4855 -4.16863
rtoes 6.57527
lfemur 6.65167 3.74293 -16.3513
ltibia 7.64175
lfoot -21.63 7.97868
ltoes -17.9615
63
root -27.9123 16.9674 0.5777 30.8782 83.0974 26.8847
lowerback 7.81277 0.882256 -5.23475
upperback 1.48723 0.76501 -0.614102
thorax -2.89781 0.441791 2.22612
lowerneck -27.5776 3.65057 3.76654
upperneck 30.7889 4.77438 -2.15939
head 15.6465 2.23028 -0.513273
rclavicle 1.1865e-015 2.70844e-015
rhumerus -40.3849 4.41318 -89.0707
rradius 33.7249
rwrist -0.316342
rhand -11.3955 -27.1646
rfingers 7.12502
rthumb 14.6394 -56.6279
lclavicle 1.1865e-015 2.70844e-015
lhumerus -24.2757 -21.7278 88.3253
lradius 34.141
lwrist 1.27603
lhand -17.4055 -21.6637
lfingers 7.12502
lthumb 8.84401 8.13102
rfemur 6.97331 -7.08351 13.5873
rtibia 8.12721
rfoot -25.628 -4.51833
rtoes 6.73321
lfemur 6.41752 4.05173 -15.931
ltibia 7.76816
lfoot -21.4936 7.61536
ltoes -19.59
